# AST/ASF file generated using VICON BodyLanguage
# -----------------------------------------------
:version 1.10
:name VICON
:units
  mass 1.0
  length 0.45
  angle deg
:documentation
   .ast/.asf automatically generated from VICON data using
   VICON BodyBuilder and BodyLanguage model FoxedUp or BRILLIANT.MOD
:root
   order TX TY TZ RX RY RZ
   axis XYZ
   position 0 0 0  
   orientation 0 0 0 
:bonedata
  begin
     id 1 
     name lhipjoint
     direction 0.606768 -0.715223 0.346827 
     length 2.41543 
     axis 0 0 0  XYZ
  end
  begin
     id 2 
     name lfemur
     direction 0.34202 -0.939693 0  
     length 7.2778  
     axis 0 0 20  XYZ
    dof rx ry rz
    limits (-160.0 20.0)
           (-70.0 70.0)
           (-60.0 70.0)
  end
  begin
     id 3 
     name ltibia
     direction 0.34202 -0.939693 0   
     length 7.61811   
     axis 0 0 20   XYZ
    dof rx
    limits (-10.0 170.0)
  end
  begin
     id 4 
     name lfoot
     direction 0.0823924 -0.226371 0.97055   
     length 2.33618   
     axis -90 7.62852e-016 20   XYZ
    dof rx rz
    limits (-45.0 90.0)
           (-70.0 20.0)
  end
  begin
     id 5 
     name ltoes
     direction 1.53554e-011 -4.21934e-011 1   
     length 1.17015   
     axis -90 7.62852e-016 20   XYZ
    dof rx
    limits (-90.0 20.0)
  end
  begin
     id 6 
     name rhipjoint
     direction -0.6077 -0.714582 0.346516   
     length 2.4176  
     axis 0 0 0  XYZ 
  end
  begin
     id 7 
     name rfemur
     direction -0.34202 -0.939693 0   
     length 7.28127   
     axis 0 0 -20   XYZ
    dof rx ry rz
    limits (-160.0 20.0)
           (-70.0 70.0)
           (-70.0 60.0)
  end
  begin
     id 8 
     name rtibia
     direction -0.34202 -0.939693 0   
     length 7.77648   
     axis 0 0 -20   XYZ
    dof rx
    limits (-10.0 170.0)
 end
 begin
     id 9 
     name rfoot
     direction -0.0809463 -0.222398 0.97159   
     length 2.37533  
     axis -90 -7.62852e-016 -20   XYZ
    dof rx rz
    limits (-45.0 90.0)
           (-20.0 70.0)
  end
  begin
     id 10 
     name rtoes
     direction -1.53568e-011 -4.21714e-011 1   
     length 1.18972   
     axis -90 -7.62852e-016 -20   XYZ
    dof rx
    limits (-90.0 20.0)
  end
  begin
     id 11 
     name lowerback
     direction 0.010968 0.991932 -0.126297   
     length 2.21698   
     axis 0 0 0   XYZ
    dof rx ry rz
    limits (-20.0 45.0)
           (-30.0 30.0)
           (-30.0 30.0)
  end
  begin
     id 12 
     name upperback
     direction 0.0167007 0.997503 -0.0686276   
     length 2.22371   
     axis 0 0 0   XYZ
    dof rx ry rz
    limits (-20.0 45.0)
           (-30.0 30.0)
           (-30.0 30.0)
  end
  begin
     id 13 
     name thorax
     direction 0.0111721 0.999885 -0.0102878   
     length 2.25242   
     axis 0 0 0   XYZ
    dof rx ry rz
    limits (-20.0 45.0)
           (-30.0 30.0)
           (-30.0 30.0)
  end
  begin
     id 14 
     name lowerneck
     direction -0.0120265 0.990428 0.137508   
     length 1.57674   
     axis 0 0 0   XYZ
    dof rx ry rz
    limits (-20.0 45.0)
           (-30.0 30.0)
           (-30.0 30.0)
  end
  begin
     id 15 
     name upperneck
     direction 0.0175669 0.998907 0.0433089   
     length 1.5618   
     axis 0 0 0   XYZ
    dof rx ry rz
    limits (-20.0 45.0)
           (-30.0 30.0)
           (-30.0 30.0)
  end
  begin
     id 16
     name head
     direction 0.00754609 0.99997 0.00185367  
     length 1.60579  
     axis 0 0 0   XYZ
    dof rx ry rz
    limits (-20.0 45.0)
           (-30.0 30.0)
           (-30.0 30.0)
  end
  begin
     id 17 
     name lclavicle
     direction 0.885866 0.429166 -0.176231  
     length 3.44967  
     axis 0 0 0   XYZ
    dof ry rz
    limits (-20.0 10.0)
           (0.0 20.0)
  end
  begin
     id 18 
     name lhumerus
     direction 1 -4.48973e-011 -1.90255e-027   
     length 5.20607   
     axis 180 -30 -90   XYZ
    dof rx ry rz
    limits (-60.0 90.0)
           (-90.0 90.0)
           (-90.0 90.0)
  end
  begin
     id 19
     name lradius
     direction 1 -4.48956e-011 9.87925e-027   
     length 3.39961   
     axis 180 -30 -90   XYZ
    dof rx
    limits (-10.0 170.0)
  end
  begin
     id 20
     name lwrist
     direction 1 -4.48985e-011 1.73247e-026   
     length 1.6998   
     axis -9.60847e-015 90 90   XYZ
    dof ry
    limits (-180.0 0.0)
 end
  begin
     id 21 
     name lhand
     direction 1 -4.48798e-011 3.46119e-026   
     length 0.519693   
     axis -2.21073e-014 90 90   XYZ
    dof rx rz
    limits (-90.0 90.0)
           (-45.0 45.0)
  end
  begin
     id 22 
     name lfingers
     direction 1 -4.48938e-011 6.92797e-026   
     length 0.41899   
     axis -4.42155e-014 90 90   XYZ
    dof rx
    limits (0.0 90.0)
  end
  begin
     id 23
     name lthumb
     direction 0.707107 -6.34952e-011 0.707107   
     length 0.601588   
     axis -90 45 6.0103e-014   XYZ
    dof rx rz
    limits (-45.0 45.0)
           (-45.0 45.0)
  end
  begin
     id 24 
     name rclavicle
     direction -0.866736 0.456792 -0.200276   
     length 3.45032  
     axis 0 0 0   XYZ 
    dof ry rz
    limits (-10.0 20.0)
           (-20.0 0.0)
  end
  begin
     id 25 
     name rhumerus
     direction -1 -4.4897e-011 8.65094e-028  
     length 5.32214   
     axis 180 30 90   XYZ
    dof rx ry rz
    limits (-90.0 60.0)
           (-90.0 90.0)
           (-90.0 90.0)
  end
  begin
     id 26 
     name rradius
     direction -1 -4.48987e-011 1.08427e-026   
     length 3.51208   
     axis 180 30 90   XYZ
    dof rx
    limits (-10.0 170.0)
  end
  begin
     id 27 
     name rwrist
     direction -1 -4.48961e-011 1.73222e-026   
     length 1.75604   
     axis -9.60847e-015 -90 -90   XYZ
    dof ry
    limits (-180.0 0.0)
  end
  begin
     id 28
     name rhand
     direction -1 -4.48895e-011 3.46314e-026   
     length 0.586681   
     axis -2.21073e-014 -90 -90   XYZ
    dof rx rz
    limits (-90.0 90.0)
           (-45.0 45.0)
  end
  begin
     id 29
     name rfingers
     direction -1 -4.48968e-011 6.92916e-026   
     length 0.472997   
     axis -4.42155e-014 -90 -90   XYZ
    dof rx
    limits (0.0 90.0)
  end
  begin
     id 30
     name rthumb
     direction -0.707107 -6.34848e-011 0.707107   
     length 0.679133   
     axis -90 -45 -6.0103e-014   XYZ
    dof rx rz
    limits (-45.0 45.0)
           (-45.0 45.0)
  end
:hierarchy
  begin
    root lhipjoint rhipjoint lowerback
    lhipjoint lfemur
    lfemur ltibia
    ltibia lfoot
    lfoot ltoes
    rhipjoint rfemur
    rfemur rtibia
    rtibia rfoot
    rfoot rtoes
    lowerback upperback
    upperback thorax
    thorax lowerneck lclavicle rclavicle
    lowerneck upperneck
    upperneck head
    lclavicle lhumerus
    lhumerus lradius
    lradius lwrist
    lwrist lhand lthumb
    lhand lfingers
    rclavicle rhumerus
    rhumerus rradius
    rradius rwrist
    rwrist rhand rthumb
    rhand rfingers
  end

#!OML:ASF H:\Dans Jumps\Project 1\Capture day 1\Session 1\subject.ASF
:FULLY-SPECIFIED
:DEGREES
41
root 0.617335 17.485 -13.6246 5.54155 -1.29443 -1.94719
lowerback -3.14673 0.00950444 0.649692
upperback 1.13423 -0.058323 1.52884
thorax 2.93098 -0.0317794 1.2038
lowerneck -15.4752 -0.119986 -2.2318
upperneck 16.6272 0.124871 1.24452
head 7.67449 0.0383411 0.791187
rclavicle -4.07509e-015 -1.59028e-015
rhumerus -24.7264 -16.4816 -79.8103
rradius 23.8801
rwrist 33.8345
rhand -18.8442 -25.521
rfingers 7.12502
rthumb 7.45551 -55.3696
lclavicle -4.07509e-015 -1.59028e-015
lhumerus -23.0578 1.97665 87.3095
lradius 17.3826
lwrist 1.02394
lhand -24.1639 -2.65881
lfingers 7.12502
lthumb 2.31907 27.3083
rfemur -10.9265 -3.49322 20.5913
rtibia 21.5074
rfoot -15.3207 -2.44341
rtoes 9.16075
lfemur -10.3735 6.87778 -17.5188
ltibia 20.4308
lfoot -12.4224 7.98474
ltoes -6.0863
42
root 0.618007 17.4849 -13.6249 5.54238 -1.29007 -1.94874
lowerback -3.14064 0.0118568 0.648086
upperback 1.13358 -0.0550492 1.53046
thorax 2.92683 -0.03019 1.20654
lowerneck -15.4726 -0.124796 -2.23435
upperneck 16.6547 0.117716 1.24979
head 7.68322 0.0351511 0.79268
rclavicle 4.5969e-015 -7.95139e-016
rhumerus -24.7217 -16.4982 -79.8021
rradius 23.8622
rwrist 33.867
rhand -18.8463 -25.5178
rfingers 7.12502
rthumb 7.45355 -55.3665
lclavicle 4.5969e-015 -7.95139e-016
lhumerus -23.0558 1.98692 87.298
lradius 17.3741
lwrist 0.991557
lhand -24.1525 -2.66821
lfingers 7.12502
lthumb 2.33009 27.2988
rfemur -10.9307 -3.49336 20.5911
rtibia 21.5105
rfoot -15.3193 -2.44697
rtoes 9.15284
lfemur -10.3827 6.87347 -17.5197
ltibia 20.4414
lfoot -12.4238 7.98788
ltoes -6.10347
43
root 0.618707 17.4847 -13.6253 5.54351 -1.28628 -1.9508
lowerback -3.13419 0.0138422 0.646922
upperback 1.13157 -0.0522654 1.53247
thorax 2.92108 -0.0288376 1.20939
lowerneck -15.462 -0.131395 -2.2428
upperneck 16.6777 0.108606 1.25881
head 7.68912 0.0310235 0.796128
rclavicle 7.0817e-015 -1.17283e-014
rhumerus -24.7191 -16.5097 -79.7946
rradius 23.8441
rwrist 33.8977
rhand -18.8479 -25.5086
rfingers 7.12502
rthumb 7.45192 -55.3573
lclavicle 7.0817e-015 -1.17283e-014
lhumerus -23.0594 1.99264 87.2874
lradius 17.3713
lwrist 0.969293
lhand -24.1432 -2.66257
lfingers 7.12502
lthumb 2.33909 27.3044
rfemur -10.9341 -3.49355 20.5909
rtibia 21.5126
rfoot -15.3181 -2.44947
rtoes 9.14036
lfemur -10.3922 6.87081 -17.5204
ltibia 20.4531
lfoot -12.4263 7.98998
ltoes -6.11572
44
root 0.619382 17.4846 -13.6256 5.54368 -1.28461 -1.95306
lowerback -3.12592 0.016532 0.645492
upperback 1.12894 -0.0484891 1.53443
thorax 2.91366 -0.0269931 1.21241
lowerneck -15.4531 -0.136175 -2.24588
upperneck 16.7004 0.101758 1.26265
head 7.69519 0.0278149 0.797236
rclavicle -7.95139e-016 -1.5704e-014
rhumerus -24.717 -16.5239 -79.7866
rradius 23.8235
rwrist 33.9292
rhand -18.8506 -25.4969
rfingers 7.12502
rthumb 7.4494 -55.3458
lclavicle -7.95139e-016 -1.5704e-014
lhumerus -23.0649 1.99157 87.2778
lradius 17.3713
lwrist 0.95368
lhand -24.1368 -2.65223
lfingers 7.12502
lthumb 2.34525 27.3146
rfemur -10.9358 -3.49071 20.5909
rtibia 21.5135
rfoot -15.317 -2.45218
rtoes 9.13322
lfemur -10.4009 6.87086 -17.5207
ltibia 20.4659
lfoot -12.4298 7.99089
ltoes -6.12006
45
root 0.620059 17.4844 -13.6259 5.54299 -1.28229 -1.95595
lowerback -3.11567 0.0192906 0.644943
upperback 1.12589 -0.0446131 1.53618
thorax 2.90468 -0.0250788 1.2147
lowerneck -15.4434 -0.141575 -2.2479
upperneck 16.7231 0.0939684 1.26552
head 7.70113 0.0241316 0.797745
rclavicle 9.54166e-015 1.53064e-014
rhumerus -24.7181 -16.5334 -79.78
rradius 23.8063
rwrist 33.9531
rhand -18.8503 -25.4844
rfingers 7.12502
rthumb 7.44962 -55.3333
lclavicle 9.54166e-015 1.53064e-014
lhumerus -23.071 1.98173 87.27
lradius 17.3725
lwrist 0.94682
lhand -24.1336 -2.62944
lfingers 7.12502
lthumb 2.34833 27.3374
rfemur -10.9358 -3.48928 20.5918
rtibia 21.5129
rfoot -15.3154 -2.45544
rtoes 9.11651
lfemur -10.4092 6.87244 -17.5203
ltibia 20.4801
lfoot -12.4352 7.98959
ltoes -6.11753
46
root 0.620742 17.4843 -13.6261 5.54176 -1.27876 -1.96103
lowerback -3.1044 0.0218816 0.646941
upperback 1.12247 -0.0410573 1.53833
thorax 2.89475 -0.02328 1.21595
lowerneck -15.4347 -0.14601 -2.24277
upperneck 16.7461 0.0873966 1.26036
head 7.70733 0.0206994 0.79456
rclavicle -1.963e-015 -5.76476e-015
rhumerus -24.7214 -16.5431 -79.7736
rradius 23.7898
rwrist 33.9749
rhand -18.8498 -25.4657
rfingers 7.12502
rthumb 7.45015 -55.3145
lclavicle -1.963e-015 -5.76476e-015
lhumerus -23.076 1.96628 87.2632
lradius 17.373
lwrist 0.943322
lhand -24.131 -2.60624
lfingers 7.12502
lthumb 2.35084 27.3606
rfemur -10.9342 -3.48779 20.5951
rtibia 21.5108
rfoot -15.3131 -2.4607
rtoes 9.09564
lfemur -10.4175 6.87364 -17.5172
ltibia 20.4962
lfoot -12.4423 7.98687
ltoes -6.1097
